Coordinates
version=1
nRows=8
nColumns=40
inDegrees=yes

Units are S.I. units (second, meters, Newtons, ...)
Angles are in degrees.

endheader
time	pelvis_tilt	pelvis_list	pelvis_rotation	pelvis_tx	pelvis_ty	pelvis_tz	hip_flexion_r	hip_adduction_r	hip_rotation_r	knee_angle_r	knee_angle_r_beta	ankle_angle_r	subtalar_angle_r	mtp_angle_r	hip_flexion_l	hip_adduction_l	hip_rotation_l	knee_angle_l	knee_angle_l_beta	ankle_angle_l	subtalar_angle_l	mtp_angle_l	lumbar_extension	lumbar_bending	lumbar_rotation	arm_flex_r	arm_add_r	arm_rot_r	elbow_flex_r	pro_sup_r	wrist_flex_r	wrist_dev_r	arm_flex_l	arm_add_l	arm_rot_l	elbow_flex_l	pro_sup_l	wrist_flex_l	wrist_dev_l
     30.01528571	     -3.80788742	     -4.35203020	     -2.36331469	      0.67420906	      0.93271563	      0.42944010	     32.20604730	     -4.58037467	     -7.99906068	     56.70285801	     56.70285801	      2.13755224	    -17.73722678	      5.04101518	     13.27983228	     -4.28545520	     -7.39838118	     20.75563613	     20.75563613	     13.38682281	    -12.09492256	     -1.59498474	    -10.93996164	      4.92786565	      2.13679864	      4.33289047	    -13.35889874	     -2.12571014	     33.39503923	     46.58929786	      0.00000000	      0.00000000	     10.52855108	    -15.76976277	     -2.18579206	     59.26629613	     46.72197657	      0.00000000	      0.00000000
     30.02807143	     -3.91151074	     -4.41780679	     -2.64279259	      0.67413116	      0.93284597	      0.42939733	     32.30250655	     -4.26833414	     -8.17911601	     53.33801567	     53.33801567	      1.55656465	    -17.44244838	      2.92592473	     12.68588591	     -4.34612767	     -7.66626428	     20.35609822	     20.35609822	     13.61199126	    -11.90937986	     -1.74189078	    -10.97456050	      5.09911712	      1.51368567	      4.28011551	    -13.04590939	     -3.87422472	     29.69293680	     46.80670968	      0.00000000	      0.00000000	      9.86551123	    -16.15134951	     -3.84139767	     62.66005844	     46.91784625	      0.00000000	      0.00000000
     30.04085714	     -3.99756663	     -4.46113168	     -2.92708520	      0.67412821	      0.93293102	      0.42944940	     32.28207739	     -3.93524227	     -8.37514597	     49.77519413	     49.77519413	      1.73378377	    -16.77918797	      2.93811190	     12.05878449	     -4.36517376	     -7.87996139	     19.93903437	     19.93903437	     13.84044516	    -11.84765672	     -1.75049993	    -11.02977590	      5.28273940	      1.89243118	      2.77504082	    -13.44891779	     -4.11464531	     28.52233288	     46.85327983	      0.00000000	      0.00000000	     10.57883454	    -16.15398952	     -4.28500112	     64.04220189	     46.98116014	      0.00000000	      0.00000000
     30.05364286	     -4.13442403	     -4.41591017	     -3.21884560	      0.67428575	      0.93275887	      0.42957181	     32.08530897	     -3.70295481	     -8.69282249	     45.75388647	     45.75388647	      1.09068274	    -16.24368480	      0.55663733	     11.47839344	     -4.31578913	     -8.23601297	     19.52695834	     19.52695834	     14.06689820	    -11.59761955	     -2.02823947	    -11.04691890	      5.30685382	      1.46169834	      2.35822710	    -13.31880742	     -6.10339739	     25.96940337	     47.06560397	      0.00000000	      0.00000000	      9.98401537	    -16.51912451	     -5.64868674	     67.50803921	     47.15380626	      0.00000000	      0.00000000
     30.06642857	     -4.34849639	     -4.41118748	     -3.46640696	      0.67451620	      0.93241592	      0.42981314	     31.88628856	     -3.39878400	     -9.11608698	     41.66338853	     41.66338853	      1.36849475	    -15.10516439	      0.77935603	     11.00127395	     -4.29391977	     -8.42791801	     19.14603686	     19.14603686	     14.31391516	    -11.54993015	     -2.08220874	    -10.87882911	      5.43892488	      1.57029629	      0.95161413	    -13.67671759	     -6.29667712	     25.19361789	     47.09838120	      0.00000000	      0.00000000	     10.57212129	    -16.65630247	     -5.98138340	     68.53754284	     47.20072524	      0.00000000	      0.00000000
     30.07921429	     -4.52242234	     -4.31838301	     -3.72474061	      0.67492020	      0.93200260	      0.43012962	     31.48574405	     -3.14911873	     -9.57381453	     37.36616181	     37.36616181	      1.64606186	    -13.62782690	      0.90762978	     10.45753753	     -4.18474512	     -8.71189062	     18.74317032	     18.74317032	     14.56032224	    -11.40968079	     -2.19408667	    -10.75538885	      5.44524643	      1.78419208	     -0.45404676	    -13.99510210	     -6.54167837	     24.45220838	     47.13489871	      0.00000000	      0.00000000	     11.08272698	    -16.77643788	     -6.35076534	     69.95573904	     47.25603138	      0.00000000	      0.00000000
     30.09200000	     -4.56258012	     -4.23726833	     -3.95605365	      0.67565266	      0.93165468	      0.43052495	     30.74888672	     -2.88785700	    -10.20639539	     32.90810351	     32.90810351	      1.90955027	    -11.60263891	      0.85090238	      9.70522614	     -4.08012025	     -9.01427183	     18.26457235	     18.26457235	     14.82670722	    -11.11207665	     -2.40872150	    -10.81613699	      5.46901426	      2.06906867	     -1.86618502	    -14.33472758	     -6.95659590	     23.76767859	     47.18293533	      0.00000000	      0.00000000	     11.40849753	    -16.74664335	     -6.77806726	     72.01211237	     47.32584714	      0.00000000	      0.00000000
     30.10478571	     -4.70594599	     -4.08037903	     -4.17927745	      0.67653681	      0.93094337	      0.43104947	     30.06090927	     -2.64380014	    -10.82950560	     28.51292340	     28.51292340	      2.12031935	     -9.36770832	      0.94743074	      9.06822145	     -3.90757492	     -9.36339924	     17.79446749	     17.79446749	     15.09426896	    -10.81716364	     -2.69505976	    -10.69905130	      5.38579982	      2.14193853	     -3.16527616	    -14.52416949	     -7.41388942	     23.32146809	     47.22543802	      0.00000000	      0.00000000	     11.56534416	    -16.90854646	     -7.24296615	     73.95631339	     47.39585931	      0.00000000	      0.00000000
